<?xml version="1.0" encoding="UTF-8" standalone="no"?>
<!-- Created with Inkscape (http://www.inkscape.org/) -->

<svg
   version="1.1"
   id="svg1"
   width="750"
   height="750"
   viewBox="0 0 750.00001 750"
   sodipodi:docname="codeweaver-reverse.svg"
   inkscape:version="1.4.2 (f4327f4, 2025-05-13)"
   inkscape:export-filename="C:\Users\bm-sv\Downloads\codeweaver-reverse.webp"
   inkscape:export-xdpi="32.768002"
   inkscape:export-ydpi="32.768002"
   xmlns:inkscape="http://www.inkscape.org/namespaces/inkscape"
   xmlns:sodipodi="http://sodipodi.sourceforge.net/DTD/sodipodi-0.dtd"
   xmlns:xlink="http://www.w3.org/1999/xlink"
   xmlns="http://www.w3.org/2000/svg"
   xmlns:svg="http://www.w3.org/2000/svg"
   xmlns:rdf="http://www.w3.org/1999/02/22-rdf-syntax-ns#"
   xmlns:cc="http://creativecommons.org/ns#"
   xmlns:dc="http://purl.org/dc/elements/1.1/">
  <title
     id="title6">CodeWeaver Weaver Logo</title>
  <defs
     id="defs1">
    <color-profile
       name="sRGB-display-profile-with-display-hardware-configuration-data-derived-from-calibration"
       xlink:href="../../../WINDOWS/system32/spool/drivers/color/CalibratedDisplayProfile-1.icc"
       id="color-profile2" />
  </defs>
  <sodipodi:namedview
     id="namedview1"
     pagecolor="#f7f3eb"
     bordercolor="#000000"
     borderopacity="0.25"
     inkscape:showpageshadow="2"
     inkscape:pageopacity="0.0"
     inkscape:pagecheckerboard="0"
     inkscape:deskcolor="#d1d1d1"
     inkscape:zoom="1"
     inkscape:cx="565.5"
     inkscape:cy="388.5"
     inkscape:window-width="2560"
     inkscape:window-height="1529"
     inkscape:window-x="-8"
     inkscape:window-y="-8"
     inkscape:window-maximized="1"
     inkscape:current-layer="g1"
     inkscape:export-bgcolor="#f7f3eb00" />
  <g
     inkscape:groupmode="layer"
     inkscape:label="Image"
     id="g1"
     transform="translate(-45.078745,-92.411427)">
    <path
       style="fill:#b56c30;fill-opacity:1;stroke:none;stroke-width:8;stroke-linecap:round;stroke-linejoin:round;stroke-dasharray:none;stroke-opacity:1;paint-order:stroke markers fill"
       d="m 682.37263,358.6511 c -0.58508,13.59241 -6.32501,26.82385 -9.34875,40 -7.04834,30.7135 -12.14698,64.20789 -2.62574,95 17.409,56.30176 80.80402,103.08606 66.08716,167 -10.59277,46.00336 -51.64337,75.70752 -96.11267,84.60034 -6.34216,1.26825 -24.3335,5.34326 -15.39661,15.98071 7.2555,8.63611 32.4867,-0.31103 41.39661,-2.87194 41.17377,-11.83429 77.55615,-43.7804 89.57251,-85.70911 9.2915,-32.42072 3.86664,-65.77991 -12.43439,-95 -17.37976,-31.15369 -43.82086,-57.95081 -53.70984,-93 -8.21704,-29.12354 -1.03747,-60.5 6.456,-89 3.75604,-14.28534 8.99237,-29.09839 9.11572,-44 13.70642,-0.58997 28.35992,-2.94061 42,-4.71838 5.23328,-0.68207 11.63477,-1.27723 10.83258,-8.27857 -1.0141,-8.85101 -20.85284,-15.9917 -27.83258,-20.00305 -29.03668,-16.68787 -59.27332,-31.4314 -88,-48.60419 -13.88879,-8.30273 -20.28694,-22.98524 -31.89508,-34.39581 -12.01013,-11.80573 -21.42896,-26.59454 -34.10492,-37.71375 -57.52417,-50.45947 -140.59857,-61.49646 -211,-33.08563 -16.43027,6.6305 -32.12195,15.80335 -46,26.80249 -14.00595,11.10053 -26.88095,23.79816 -37.76465,37.99689 -50.83551,66.3194 -49.85245,150.96362 -66.44601,229 -11.35941,53.42114 -31.25591,104.60803 -58.36804,152 -21.93079,38.33496 -47.39428,74.2655 -74.631167,109 -5.71602,7.28949 -13.0032,14.71582 -17.221447,23 -2.17998,4.28125 -1.82891,10.01868 3.475297,11.56635 11.84199,3.45538 29.800437,0.76019 41.956017,-0.39661 26.58286,-2.52973 52.80876,-4.96045 79,-10.74536 62.88638,-13.88983 125.24854,-34.3498 182,-65.11573 49.2475,-26.69793 93.23175,-60.23321 118.75311,-111.30865 23.51575,-47.06165 25.48346,-100.57953 44.69672,-149 23.36223,-63.38184 62.39226,-87.28583 124.96438,-85.51472 -2.82042,2.53808 -47.01158,-10.37025 -76.10476,52.51472 -8.84613,19.12085 -15.77075,40.85785 -17.21997,62 -1.52472,22.24329 1.3443,44.75659 -0.17896,67 -3.04687,44.49176 -14.06842,88.84692 -37.96069,127 -33.03223,52.74854 -85.01331,92.25952 -144.94983,109.29016 -22.83151,6.48743 -46.30203,9.70984 -70,9.70984 -5.59619,0 -22.49036,-2.80359 -25.96759,2.43365 -3.98721,6.00531 6.03668,10.00525 9.96759,11.69367 13.61124,5.84637 28.37747,9.32703 43,11.44446 49.59094,7.18097 102.97806,-4.41248 146,-29.58338 70.08502,-41.00464 120.83429,-115.19763 131.71759,-195.9884 8.41974,-62.50293 -16.79004,-140.48755 40.28241,-185.99615 7.34698,-5.85834 15.30176,-11.36323 24,-15.00385 m -118,-108 c -16.72528,-4.81805 -31.26367,-11.14111 -49,-12.83026 -73.58258,-7.00763 -140.17197,26.56189 -173.24384,93.83026 -6.87985,13.99365 -11.63443,28.99921 -15.74536,44 -1.52997,5.58289 -4.75781,14.14502 -3.60339,19.94135 1.05527,5.2984 9.47101,4.65435 13.59259,5.34417 12.75299,2.13452 25.65201,6.87488 37,13.02313 31.46594,17.04804 58.20261,45.21406 69.25385,79.69135 16.01068,49.94958 -10.23554,99.39294 -48.25385,131.24615 -46.68646,39.11567 -105.77573,62.13617 -164,77.9051 -27.67554,7.49536 -57.20589,14.84875 -86,14.84875 16.95084,-25.65143 37.30475,-48.72607 53.57562,-75 27.87943,-45.01923 48.09882,-95.8772 61.5401,-147 21.61124,-82.19647 16.61484,-184.15137 79.89893,-249 42.94501,-44.00671 111.05414,-57.97681 168.98535,-38.66669 20.14246,6.71405 49.02112,20.80274 56,42.66669 m -65,25.32562 c 36.146,-6.08258 45.31494,47.57361 9,53.23377 -33.28278,5.18756 -42.41846,-47.61017 -9,-53.23377 z"
       id="path1"
       sodipodi:nodetypes="csssssssssscssssssssssssssssssscsssssssssssscccsssssssscsssscsss" />
    <g
       id="path2"
       style="display:inline;opacity:1">
      <path
         style="baseline-shift:baseline;display:inline;overflow:visible;opacity:1;vector-effect:none;fill:#455b6b;fill-opacity:1;stroke-linecap:round;stroke-linejoin:round;paint-order:stroke markers fill;enable-background:accumulate;stop-color:#000000;stop-opacity:1"
         d="m 738.40363,350.19133 c 11.72326,0.99273 26.91253,-6.59593 16.73205,-18.14197 C 738.768,321.74075 714.70264,309.45977 711.74326,307.75897 682.54893,290.9805 671.77839,285.08336 643.2473,268.02749 630.37255,260.33096 618.47997,245.60901 608.96371,232.71967 597.86208,217.68301 584.9606,204.88471 571.9996,193.51548 535.28585,161.31064 489.51456,149.98111 442.03683,149.23575 c -28.48665,-0.44722 -51.90272,3.52393 -78.80803,14.3817 -16.79791,6.77886 -30.15672,15.78502 -44.33663,27.0234 -14.23447,11.28164 -27.34526,24.73387 -38.45508,39.2276 -51.85039,67.64339 -53.01721,150.52054 -69.48169,227.94991 -11.26989,53.00014 -29.76321,104.79914 -56.67774,151.8457 -21.80305,38.11168 -46.64929,73.88646 -73.806644,108.51953 -5.5114,7.02854 -12.26379,13.56959 -16.888671,22.65235 -1.457231,2.86185 -0.786702,6.31596 0.01922,9.62282 0.292951,1.20204 2.343326,-0.91896 2.910847,-1.77467 1.192514,-1.79808 0.976274,-2.79789 1.698844,-4.21729 3.81161,-7.48561 10.88404,-14.79722 16.80468,-22.34766 27.316434,-34.83593 52.898514,-70.92418 74.957034,-109.48242 27.30974,-47.73738 47.35967,-99.31216 58.8086,-153.1543 16.72263,-78.64339 15.8864,-162.40303 65.70703,-227.39844 10.65757,-13.90373 23.29678,-26.3755 37.07422,-37.29492 13.57618,-10.75989 28.95103,-19.74637 45.01367,-26.22851 25.89576,-10.45036 52.12729,-16.86904 79.53891,-16.43765 45.68604,0.71897 92.13487,17.95292 127.32632,48.82241 12.39093,10.86919 24.96461,23.07612 34.95718,36.39836 9.3601,12.47907 18.13819,25.63688 33.04102,34.54581 28.92226,17.28971 57.76731,33.27885 86.64633,49.87611 4.02037,2.31056 25.71226,10.63135 22.7999,19.68949 -2.91236,9.05814 -32.02462,7.73534 -45.35458,8.94922 -3.06487,0.2791 -2.06014,0.0211 -2.07813,2.15039 -0.11577,13.98659 -5.23127,27.6932 -9.04687,42.20508 -7.51729,28.59058 -15.58627,60.10687 -7,90.53906 10.25029,36.32976 36.80213,62.92723 53.8164,93.42578 15.85394,28.41867 19.56169,61.49844 10.58399,92.82422 -11.57551,40.39043 -46.40961,72.85765 -86.34785,84.33681 -4.68015,1.34519 -22.50746,8.9605 -31.43033,7.83912 -3.65939,-0.4599 -16.25778,-13.81811 -10.34682,-3.92007 8.23529,13.79017 29.8949,2.34039 42.3971,-1.35611 42.4093,-12.18941 78.48527,-42.99546 90.94248,-86.46244 9.6053,-33.51566 2.87338,-64.574 -13.87474,-94.59552 -17.74524,-31.80882 -44.19153,-60.05755 -53.7192,-93.82617 -7.84781,-27.81489 -0.45583,-60.12983 7.01382,-88.53925 3.40368,-12.94521 8.64652,-27.99666 9.1445,-42.45519 m -50.00162,17.95733 c -29.63149,23.62765 -37.9722,56.02896 -39.88476,89.52539 -1.91256,33.49644 2.24278,68.5546 -1.86719,99.06446 C 603.12544,638.59857 553.30516,712.63237 484.30891,753 c -42.23908,24.71287 -94.6439,33.84304 -143.65625,31.07617 -31.19616,-1.7611 -58.08891,-23.04394 -54.12376,-17.22965 8.61303,12.62972 38.11744,20.18333 52.97728,22.33512 50.59821,7.32683 104.787,-4.46092 148.59179,-30.08984 71.1738,-41.64165 118.98111,-117.5132 130.04079,-199.61336 4.30977,-31.99308 -0.37435,-68.23964 1.48123,-100.7384 1.8556,-32.49876 12.27419,-63.61142 39.71515,-85.49238 5.27506,-4.20623 15.99307,-10.97634 21.69721,-14.22313 -9.3108,3.77361 -17.95567,5.52854 -25.44805,11.50281 z"
         id="path3"
         sodipodi:nodetypes="ccsssssssssssssscssssssssssscscsssssssssssscssssssssssscs" />
      <path
         style="baseline-shift:baseline;display:none;overflow:visible;vector-effect:none;fill:#0f1a2c;stroke-linecap:round;stroke-linejoin:round;paint-order:stroke markers fill;enable-background:accumulate;stop-color:#000000;stop-opacity:1"
         d="m 666.37263,337.6511 c -8.00665,7.20514 -20.90955,10.64459 -30,17.03625 -19.05249,13.39618 -34.90912,32.82117 -44.69055,53.96375 -8.84613,19.12085 -15.77075,40.85785 -17.21997,62 -1.52472,22.24329 1.3443,44.75659 -0.17896,67 -3.04687,44.49176 -14.06842,88.84692 -37.96069,127 -33.03223,52.74854 -85.01331,92.25952 -144.94983,109.29016 -22.83151,6.48743 -46.30203,9.70984 -70,9.70984 -5.59619,0 -22.49036,-2.80359 -25.96759,2.43365 -3.98721,6.00531 6.03668,10.00525 9.96759,11.69367 13.61124,5.84637 28.37747,9.32703 43,11.44446 49.59094,7.18097 102.97806,-4.41248 146,-29.58338 70.08502,-41.00464 120.83429,-115.19763 131.71759,-195.9884 8.41974,-62.50293 -16.79004,-140.48755 40.28241,-185.99615 7.34698,-5.85834 15.30176,-11.36323 24,-15.00385 -0.58508,13.59241 -6.32501,26.82385 -9.34875,40 -7.04834,30.7135 -12.14698,64.20789 -2.62574,95 17.409,56.30176 80.80402,103.08606 66.08716,167 -10.59277,46.00336 -51.64337,75.70752 -96.11267,84.60034 -6.34216,1.26825 -24.3335,5.34326 -15.39661,15.98071 7.2555,8.63611 32.4867,-0.31103 41.39661,-2.87194 41.17377,-11.83429 77.55615,-43.7804 89.57251,-85.70911 9.2915,-32.42072 3.86664,-65.77991 -12.43439,-95 -17.37976,-31.15369 -43.82086,-57.95081 -53.70984,-93 -8.21704,-29.12354 -1.03747,-60.5 6.456,-89 3.75604,-14.28534 8.99237,-29.09839 9.11572,-44 13.70642,-0.58997 28.35992,-2.94061 42,-4.71838 5.23328,-0.68207 11.63477,-1.27723 10.83258,-8.27857 -1.0141,-8.85101 -20.85284,-15.9917 -27.83258,-20.00305 -29.03668,-16.68787 -59.27332,-31.4314 -88,-48.60419 -13.88879,-8.30273 -22.40826,-21.7478 -31.89508,-34.39581 -10.10516,-13.47235 -21.42896,-26.59454 -34.10492,-37.71375 -57.52417,-50.45947 -140.59857,-61.49646 -211,-33.08563 -16.43027,6.6305 -32.12195,15.80335 -46,26.80249 -14.00595,11.10053 -26.88095,23.79816 -37.76465,37.99689 -50.83551,66.3194 -49.85245,150.96362 -66.44601,229 -11.35941,53.42114 -31.25591,104.60803 -58.36804,152 -21.93079,38.33496 -47.39428,74.2655 -74.631167,109 -5.71602,7.28949 -13.0032,14.71582 -17.221447,23 -2.17998,4.28125 -1.82891,10.01868 3.475297,11.56635 11.84199,3.45538 29.800437,0.76019 41.956017,-0.39661 26.58286,-2.52973 52.80876,-4.96045 79,-10.74536 62.88638,-13.88983 125.24854,-34.3498 182,-65.11573 49.2475,-26.69793 93.23175,-60.23321 118.75311,-111.30865 23.51575,-47.06165 25.48346,-100.57953 44.69672,-149 12.52789,-31.57239 33.26367,-59.06708 60.55017,-79.37036 18.36987,-13.66864 39.73804,-24.62964 63,-24.62964 m -94,-63 c -16.72528,-4.81805 -31.26367,-11.14111 -49,-12.83026 -73.58258,-7.00763 -140.17197,26.56189 -173.24384,93.83026 -6.87985,13.99365 -11.63443,28.99921 -15.74536,44 -1.52997,5.58289 -4.75781,14.14502 -3.60339,19.94135 1.05527,5.2984 9.47101,4.65435 13.59259,5.34417 12.75299,2.13452 25.65201,6.87488 37,13.02313 31.46594,17.04804 58.20261,45.21406 69.25385,79.69135 16.01068,49.94958 -10.23554,99.39294 -48.25385,131.24615 -46.68646,39.11567 -105.77573,62.13617 -164,77.9051 -27.67554,7.49536 -57.20589,14.84875 -86,14.84875 16.95084,-25.65143 37.30475,-48.72607 53.57562,-75 27.87943,-45.01923 48.09882,-95.8772 61.5401,-147 21.61124,-82.19647 16.61484,-184.15137 79.89893,-249 42.94501,-44.00671 111.05414,-57.97681 168.98535,-38.66669 20.14246,6.71405 49.02112,20.80274 56,42.66669 m -65,25.32562 c 36.146,-6.08258 45.31494,47.57361 9,53.23377 -33.28278,5.18756 -42.41846,-47.61017 -9,-53.23377 z"
         id="path4" />
    </g>
  </g>
  <metadata
     id="metadata6">
    <rdf:RDF>
      <cc:Work
         rdf:about="">
        <dc:title>CodeWeaver Weaver Logo</dc:title>
        <dc:date>11/25/2025</dc:date>
        <dc:creator>
          <cc:Agent>
            <dc:title>Adam Poulemanos</dc:title>
          </cc:Agent>
        </dc:creator>
        <dc:rights>
          <cc:Agent>
            <dc:title>(c) 2025 Knitli Inc.</dc:title>
          </cc:Agent>
        </dc:rights>
        <dc:subject>
          <rdf:Bag>
            <rdf:li>logo</rdf:li>
            <rdf:li>codeweaver</rdf:li>
            <rdf:li>knitli</rdf:li>
          </rdf:Bag>
        </dc:subject>
        <dc:description>An abstract depiction of a Southern Masked Weaver holding a thread in its beak</dc:description>
      </cc:Work>
    </rdf:RDF>
  </metadata>
</svg>
